<?xml version="1.0" encoding="UTF-8"?>
<svg width="1200pt" height="1200pt" version="1.1" viewBox="0 0 1200 1200" xmlns="http://www.w3.org/2000/svg">
 <path d="m1044 0h-888c-85.332 0-156 70.668-156 156v888c0 85.332 70.668 156 156 156h888c85.332 0 156-70.668 156-156v-888c0-85.332-70.668-156-156-156zm-77.332 669.33h-733.33c-38.668 0-69.332-30.668-69.332-69.332 0-38.668 32-69.332 69.332-69.332h733.33c38.668 0 69.332 30.668 69.332 69.332 0 38.668-30.668 69.332-69.332 69.332z" fill="#f2860b"/>
</svg>
