<?xml version="1.0" encoding="UTF-8"?>
<svg width="1200pt" height="1200pt" version="1.1" viewBox="0 0 1200 1200" xmlns="http://www.w3.org/2000/svg">
 <path d="m1044 0h-888c-85.332 0-156 70.668-156 156v888c0 85.332 70.668 156 156 156h888c85.332 0 156-70.668 156-156v-888c0-85.332-70.668-156-156-156zm-88 874.67c25.332 25.332 24 66.668-1.332 92-12 12-29.332 18.668-45.332 18.668-17.332 0-33.332-6.668-46.668-20l-262.67-272-262.67 272c-13.332 13.332-29.332 20-46.668 20-16 0-33.332-6.668-45.332-18.668-25.332-25.332-26.668-66.668-1.332-92l265.33-274.66-265.33-274.67c-25.332-25.332-24-66.668 1.332-92s66.668-24 92 1.332l262.67 272 262.67-272c25.332-25.332 66.668-26.668 92-1.332 25.332 25.332 26.668 66.668 1.332 92l-265.33 274.66z" fill="#e33636"/>
</svg>
