<?xml version="1.0" encoding="UTF-8"?>
<svg width="1200pt" height="1200pt" version="1.1" viewBox="0 0 1200 1200" xmlns="http://www.w3.org/2000/svg">
 <path d="m1044 0h-888c-85.332 0-156 70.668-156 156v888c0 85.332 70.668 156 156 156h888c85.332 0 156-70.668 156-156v-888c0-85.332-70.668-156-156-156zm-14.668 344-473.33 593.33c-12 14.668-28 22.668-46.668 24h-4c-17.332 0-33.332-6.668-45.332-18.668l-284-278.66c-25.332-25.332-25.332-66.668 0-92s66.668-25.332 92 0l232 228 428-536c22.668-28 64-33.332 92-10.668 26.668 22.668 32 62.668 9.332 90.668z" fill="#70d058"/>
</svg>
